<?xml version="1.0" encoding="UTF-8" standalone="no"?>
<svg width="205px" height="401px" viewBox="0 0 205 401" version="1.1" xmlns="http://www.w3.org/2000/svg" xmlns:xlink="http://www.w3.org/1999/xlink">
    <!-- Generator: Sketch 3.8.1 (29687) - http://www.bohemiancoding.com/sketch -->
    <title>Page 1</title>
    <desc>Created with Sketch.</desc>
    <defs>
        <polygon id="path-1" points="159.442862 0.312341406 0.124778317 0.312341406 0.124778317 184.813162 159.442862 184.813162 159.442862 0.312341406"></polygon>
    </defs>
    <g id="Portfolio" stroke="none" stroke-width="1" fill="none" fill-rule="evenodd">
        <g id="Desktop-HD-Copy-3" transform="translate(-1053.000000, -2094.000000)">
            <g id="Page-1" transform="translate(1053.000000, 2094.000000)">
                <path d="M105.335416,293.401863 C119.089195,296.155292 108.744676,307.169008 108.744676,307.169008 C131.536607,291.041915 131.663989,290.255266 131.663989,290.255266 C143.845683,302.841967 131.663989,324.082749 131.663989,324.082749 C148.561309,317.002593 151.937706,291.591411 151.937706,291.591411 C157.756576,300.593234 153.5245,320.971866 153.5245,320.971866 C163.310981,311.433392 167.278279,292.385892 167.278279,292.385892 C170.981424,299.798753 165.691485,320.971866 165.691485,320.971866 C176.006584,312.757318 177.958309,295.742074 177.958309,295.742074 C181.712156,305.941258 174.359698,320.971866 174.359698,320.971866 C186.313546,312.382947 190.292737,293.594844 190.292737,293.594844 C190.292737,293.594844 192.974324,331.861836 192.974324,307.169008 C192.974324,282.475866 186.412134,263.555872 186.412134,263.555872 C186.412134,263.555872 178.494439,236.310741 176.885737,231.479318 C175.276721,226.648208 171.968553,214.70154 171.968553,214.70154 L38.6609656,214.70154 C38.6609656,214.70154 35.3941107,226.648208 33.7850954,231.479318 C32.1763931,236.310741 24.2586985,263.555872 24.2586985,263.555872 C24.2586985,263.555872 17.6968206,282.475866 17.6968206,307.169008 C17.6968206,331.861836 20.3780954,293.594844 20.3780954,293.594844 C20.3780954,293.594844 24.3572863,312.382947 36.3111336,320.971866 C36.3111336,320.971866 28.9586756,305.941258 32.7125229,295.742074 C32.7125229,295.742074 34.6642481,312.757318 44.9793473,320.971866 C44.9793473,320.971866 39.6894084,299.798753 43.3925534,292.385892 C43.3925534,292.385892 47.3598511,311.433392 57.1463321,320.971866 C57.1463321,320.971866 52.9142557,300.593234 58.7334389,291.591411 C58.7334389,291.591411 62.1095229,317.002593 79.0068435,324.082749 C79.0068435,324.082749 66.8251489,302.841967 79.0068435,290.255266 C79.0068435,290.255266 78.8797748,291.041915 101.671393,307.169008 C101.671393,307.169008 91.5816374,296.155292 105.335416,293.401863" id="Fill-1" fill="#434345"></path>
                <path d="M128.712114,252.270165 C128.712114,252.270165 125.516299,267.045343 139.800261,281.343186 L104.994261,281.343186 L104.994261,262.658639 L128.712114,252.270165 Z" id="Fill-60" fill="#DDA885"></path>
                <path d="M184.794511,188.433691 L185.41984,185.723808 L190.218405,182.172765 L182.404931,178.012703 L171.561214,156.546359 L172.866954,144.784214 L168.950046,159.48713 L167.644305,156.546359 L162.421656,151.972139 L158.831183,146.901056 L159.48374,141.691502 L159.157618,138.249481 L158.178313,134.328452 L154.261092,130.080985 L153.608534,127.140527 L150.344183,124.526509 L154.261092,122.239242 L146.10084,119.625537 L174.36674,121.235802 L175.412084,108.928862 L168.531908,112.470506 C174.992069,103.920121 175.412084,89.0994118 175.412084,89.0994118 L163.528031,98.2851313 L171.23916,85.5483688 L159.980435,86.5950415 L171.23916,71.7743321 L158.318527,79.287443 L166.029969,55.7105227 L161.446107,60.2988399 L157.273183,62.3827868 L149.141725,68.0177766 L154.350916,46.5248032 L143.512206,57.5889571 L146.639786,48.0385782 L140.384939,55.7105227 L142.466863,48.0385782 L138.303015,54.6641634 C139.031313,48.4590016 134.811443,40.3387516 133.737931,38.3948415 C136.146603,43.2635454 131.62784,51.3280313 131.62784,51.3280313 C132.458794,44.6463688 128.705885,37.1332579 128.705885,37.1332579 C129.751542,49.8609352 124.327649,49.0291735 124.327649,49.0291735 C120.789443,37.7595071 113.700824,30.2463962 113.700824,30.2463962 L109.543863,41.0956391 L109.543863,35.0496243 L104.849206,40.4693899 L104.849206,35.4606493 L105.062969,263.543271 C150.301618,248.296186 157.760176,222.317564 157.760176,222.317564 L160.564763,219.25618 L163.714565,214.801947 L174.017145,214.801947 L174.017145,206.730569 L179.12587,199.64728 L180.396557,193.862855 L186.241092,191.779221 L179.990939,190.732549 L184.794511,188.433691 Z" id="Fill-3" fill="#E5B796"></path>
                <polygon id="Fill-5" fill="#FFFFFF" points="52.7792687 137.745286 52.8036809 138.509065 54.7040779 136.942346"></polygon>
                <polygon id="Stroke-7" stroke="#444345" stroke-width="2.983" points="52.7792687 137.745286 52.8036809 138.509065 54.7040779 136.942346"></polygon>
                <polygon id="Fill-9" fill="#FFFFFF" points="52.7503809 136.842127 52.4192511 126.486929 46.7139916 135.74251 47.2269611 136.558608"></polygon>
                <polygon id="Stroke-11" stroke="#444345" stroke-width="2.983" points="52.7503809 136.842127 52.4192511 126.486929 46.7139916 135.74251 47.2269611 136.558608"></polygon>
                <path d="M81.958687,252.270165 C81.958687,252.270165 85.2677294,266.91221 70.9837675,281.210053 L105.331715,281.210053 L105.208191,262.621291 L81.958687,252.270165 Z" id="Fill-58" fill="#EBB894"></path>
                <path d="M102.303325,40.6843948 L100.154737,36.9278394 L100.154737,47.1508331 C95.4600809,36.3015902 89.6161725,30.2461769 89.6161725,30.2461769 C92.1181115,43.5997902 87.0635313,48.0386722 87.0635313,48.0386722 C83.9362641,41.002062 78.1787374,36.9278394 78.1787374,36.9278394 C82.557287,41.93658 80.0938443,51.5336378 80.0938443,51.5336378 C75.5009053,45.272712 66.7632107,41.3103308 66.7632107,41.3103308 C73.8490122,47.9825948 72.6171344,56.121955 72.6171344,56.121955 C68.0238824,51.7391503 61.3631038,48.0386722 61.3631038,48.0386722 C68.2435924,56.2431948 66.7801115,66.1394362 66.7801115,66.1394362 L61.1518443,58.6263253 L58.2399053,76.7831667 L53.1649817,72.550737 L44.4795542,95.5659441 L37.8046916,99.742923 L39.8866153,104.751664 L33.8464702,116.021643 L34.8921267,120.609647 L48.5022489,129.100822 L42.0098519,128.255589 L46.7138977,135.742385 L52.4191573,126.487117 L52.750287,136.842002 L54.7042031,136.942565 L52.872974,140.676251 L52.9402641,142.779621 L54.0513328,143.150233 L53.0720275,146.90115 L48.3069511,149.986343 L45.8907679,154.913004 L36.0657908,175.588314 L24.2587298,185.518076 L30.924516,190.106393 L26.7606687,193.442525 L30.924516,198.666177 L30.9364092,199.647374 L35.681455,206.730663 L35.681455,214.802041 L46.7016916,214.802041 L49.8104931,219.25596 L52.5831573,222.342721 C52.5831573,222.342721 59.8554931,248.327207 105.208066,263.56834 C105.250631,263.554242 105.291631,263.533253 105.334195,263.518842 L105.162371,35.5409433 L102.303325,40.6843948 Z" id="Fill-13" fill="#F0C8A7"></path>
                <polygon id="Fill-15" fill="#FFFFFF" points="46.7139603 135.742353 46.3380748 136.352625 47.2269298 136.558451"></polygon>
                <polygon id="Stroke-17" stroke="#444345" stroke-width="2.983" points="46.7139603 135.742353 46.3380748 136.352625 47.2269298 136.558451"></polygon>
                <polygon id="Fill-19" fill="#FFFFFF" points="47.2268359 136.558608 46.3379809 136.352469 42.9531336 141.843349 52.7793626 137.745317 52.7502557 136.842127"></polygon>
                <polygon id="Stroke-21" stroke="#444345" stroke-width="2.983" points="47.2268359 136.558608 46.3379809 136.352469 42.9531336 141.843349 52.7793626 137.745317 52.7502557 136.842127"></polygon>
                <polygon id="Fill-23" fill="#FFFFFF" points="174.656432 149.343427 173.846134 135.962245 172.866829 144.784245 172.867142 144.783932"></polygon>
                <polygon id="Stroke-25" stroke="#444345" stroke-width="2.983" points="174.656432 149.343427 173.846134 135.962245 172.866829 144.784245 172.867142 144.783932"></polygon>
                <polygon id="Fill-27" fill="#FFFFFF" points="49.1550565 141.516691 38.3833237 152.540745 39.6890641 155.566415 48.3072015 149.986249 51.129629 144.230959"></polygon>
                <polygon id="Stroke-29" stroke="#444345" stroke-width="2.983" points="49.1550565 141.516691 38.3833237 152.540745 39.6890641 155.566415 48.3072015 149.986249 51.129629 144.230959"></polygon>
                <polygon id="Fill-31" fill="#FFFFFF" points="51.129629 144.230959 53.0719649 146.901056 52.9402015 142.779841 51.9959496 142.46468"></polygon>
                <polygon id="Stroke-33" stroke="#444345" stroke-width="2.983" points="51.129629 144.230959 53.0719649 146.901056 52.9402015 142.779841 51.9959496 142.46468"></polygon>
                <polygon id="Fill-35" fill="#FFFFFF" points="176.457584 153.932622 174.656401 149.343365 175.151844 157.526584"></polygon>
                <polygon id="Stroke-37" stroke="#444345" stroke-width="2.983" points="176.457584 153.932622 174.656401 149.343365 175.151844 157.526584"></polygon>
                <polygon id="Fill-39" fill="#FFFFFF" points="51.129629 144.230959 48.3072015 149.986249 53.0719649 146.901056"></polygon>
                <polygon id="Stroke-41" stroke="#444345" stroke-width="2.983" points="51.129629 144.230959 48.3072015 149.986249 53.0719649 146.901056"></polygon>
                <polygon id="Fill-43" fill="#FFFFFF" points="52.9402954 142.779715 52.8730053 140.676345 51.9960435 142.464554"></polygon>
                <polygon id="Stroke-45" stroke="#444345" stroke-width="2.983" points="52.9402954 142.779715 52.8730053 140.676345 51.9960435 142.464554"></polygon>
                <polygon id="Fill-47" fill="#FFFFFF" points="52.8730053 140.67622 52.8038374 138.50894 49.1551504 141.516753 51.9960435 142.464429"></polygon>
                <polygon id="Stroke-49" stroke="#444345" stroke-width="2.983" points="52.8730053 140.67622 52.8038374 138.50894 49.1551504 141.516753 51.9960435 142.464429"></polygon>
                <g id="Group-53" transform="translate(25.977099, 0.000000)">
                    <mask id="mask-2" fill="white">
                        <use xlink:href="#path-1"></use>
                    </mask>
                    <g id="Clip-52"></g>
                    <path d="M14.2536031,177.108636 C14.2536031,177.108636 6.41415267,176.716408 4.45429008,166.122489 L6.02199237,154.744114 C6.02199237,154.744114 -0.249442748,136.695668 0.14240458,130.810367 C0.534251908,124.924752 7.18908397,126.102063 7.18908397,126.102063 C7.18908397,126.102063 4.87931298,117.507818 9.5899313,106.091536 C9.5899313,106.091536 7.85447328,95.6680424 15.5405649,88.719151 C15.5405649,88.719151 17.7720916,70.3539776 20.2511832,67.8721635 C20.2511832,67.8721635 8.84629771,51.4922534 23.4745344,30.6452659 C23.4745344,30.6452659 32.1524504,21.9592299 37.8548931,17.9883901 C37.8548931,17.9883901 44.0534046,1.11224242 61.4089237,0.863810391 C61.4089237,0.863810391 82.2356718,2.10471742 86.4505344,0.863810391 C90.6657099,-0.377096641 96.3681527,0.863810391 96.3681527,0.863810391 C96.3681527,0.863810391 140.501053,18.2365088 143.724092,27.6672143 C143.724092,27.6672143 159.840221,34.1198682 151.162305,69.8574268 C151.162305,69.8574268 152.897763,76.3100807 152.15413,82.7627346 C152.15413,82.7627346 160.583855,90.7044143 151.906252,107.580562 C151.906252,107.580562 155.039779,118.748725 155.828168,130.165007 C155.828168,130.165007 162.815382,137.858568 157.360817,158.953674 C157.360817,158.953674 158.210863,172.236486 157.014038,174.931331 C157.014038,174.931331 157.014038,181.81882 150.13355,184.813162 C150.13355,184.813162 143.512832,150.457487 83.1968244,149.619146 C22.8808168,148.780492 12.3281679,159.736564 14.2536031,177.108636" id="Fill-51" fill="#434345" mask="url(#mask-2)"></path>
                </g>
                <path d="M139.542624,281.038563 C139.542624,281.038563 168.392853,280.91795 192.847005,307.169039 L104.297224,307.169039 L104.297224,281.038563 L139.542624,281.038563 Z" id="Fill-54" fill="#DDA885"></path>
                <path d="M71.1282084,281.038563 C71.1282084,281.038563 42.2779794,280.91795 17.8238267,307.169039 L105.335353,307.169039 L105.335353,281.038563 L71.1282084,281.038563 Z" id="Fill-56" fill="#EBB894"></path>
                <path d="M8.68965267,326.956854 L105.463014,326.956853 L105.933366,304.025455 C62.0558546,304.91298 18.4911565,306.712933 18.4911565,306.712933 C18.4911565,306.712933 8.68965267,315.678729 8.68965267,326.956854 Z" id="Fill-62" fill="#EBB894"></path>
                <path d="M192.974168,307.168914 C192.974168,307.168914 200.070298,316.220549 200.070298,327.434451 L105.291756,326.99993 L105.33526,303.952455 C149.213084,304.839981 192.974168,307.168914 192.974168,307.168914" id="Fill-64" fill="#DDA885"></path>
                <path d="M20.3780954,293.594844 C20.3780954,293.594844 24.8561718,313.401425 36.3111336,320.971866 C36.3111336,320.971866 25.9084008,291.421612 28.3446145,288.871503 C28.3446145,288.871503 35.9649809,314.818396 44.9793473,320.971866 C44.9793473,320.971866 37.5746221,284.81733 41.2549198,278.20177 C41.2549198,278.20177 43.5966145,308.867618 57.1463321,320.971866 C57.1463321,320.971866 51.1628359,278.386919 55.1260649,272.152936 C55.1260649,272.152936 55.8953626,313.389207 79.0068435,324.082749 C79.0068435,324.082749 67.5819275,305.360122 74.3760344,266.654223 L34.7437443,269.392301 L19.7386832,282.729311 C19.7386832,282.729311 16.3040725,301.157454 18.1637824,315.41645 C18.1637824,315.41645 22.9501412,291.552877 26.1772481,288.322321 C29.404355,285.092078 20.3780954,293.594844 20.3780954,293.594844" id="Fill-66" fill="#434345"></path>
                <path d="M190.080476,293.594844 C190.080476,293.594844 185.602399,313.401425 174.147437,320.971866 C174.147437,320.971866 184.55017,291.421612 182.113956,288.871503 C182.113956,288.871503 174.49359,314.818396 165.479224,320.971866 C165.479224,320.971866 172.883949,284.81733 169.203651,278.20177 C169.203651,278.20177 166.861956,308.867618 153.312239,320.971866 C153.312239,320.971866 159.295735,278.386919 155.332506,272.152936 C155.332506,272.152936 154.563208,313.389207 131.451727,324.082749 C131.451727,324.082749 142.876644,305.360122 136.082537,266.654223 L175.714827,269.392301 L190.719888,282.729311 C190.719888,282.729311 194.154498,301.157454 192.294789,315.41645 C192.294789,315.41645 187.50843,291.552877 184.281323,288.322321 C181.054216,285.092078 190.080476,293.594844 190.080476,293.594844" id="Fill-68" fill="#434345"></path>
                <polygon id="Fill-70" fill="#B23B3B" points="141.736562 288.541116 142.212913 280.144552 144.217218 277.780532 144.394676 274.652419 146.258768 274.758621 146.08131 277.886421 147.80644 280.443736 145.755188 316.594199 142.785974 319.485785 140.147577 316.544074"></polygon>
                <polygon id="Fill-72" fill="#E5B796" points="149.318088 302.549456 142.160927 304.105211 133.789103 293.465866 140.811683 280.237879 149.340309 280.848151 143.488576 273.119816 154.085981 277.996038 158.291767 286.5671 157.197599 301.885613"></polygon>
                <polygon id="Fill-74" fill="#F9ECDC" points="0 326.956854 19.5416641 364.653978 20.5043817 366.48911 21.5609924 368.534717 21.9522137 369.286639 28.7807481 365.421316 40.7749695 374.417017 37.7450382 387.67225 32.1524504 388.973171 38.3831985 400.999843 163.39971 400.438261 204.691092 326.956854"></polygon>
                <polygon id="Fill-76" fill="#E5B796" points="21.3294519 369.768773 21.561055 368.666336 19.5417267 364.785095 15.8213679 369.218964 15.6758336 378.766837 23.2019939 392.149899 30.6098489 389.381432 32.152513 389.023978 21.9519634 369.417898"></polygon>
                <polygon id="Fill-78" fill="#E5B796" points="40.7750947 374.528831 28.7805603 365.570554 21.952026 369.417961 32.1525756 389.024041 37.7451634 387.727996"></polygon>
            </g>
        </g>
    </g>
</svg>