<?xml version="1.0" encoding="UTF-8" standalone="no"?>
<svg width="205px" height="351px" viewBox="0 0 205 351" version="1.1" xmlns="http://www.w3.org/2000/svg" xmlns:xlink="http://www.w3.org/1999/xlink">
    <!-- Generator: Sketch 3.8.2 (29753) - http://www.bohemiancoding.com/sketch -->
    <title>Page 1</title>
    <desc>Created with Sketch.</desc>
    <defs>
        <polygon id="path-1" points="170.849654 0.255335976 0.232119396 0.255335976 0.232119396 197.883503 170.849654 197.883503"></polygon>
        <polygon id="path-3" points="0.258716949 25.39445 101.759081 25.39445 101.759081 0.241490783 0.258716949 0.241490783 0.258716949 25.39445"></polygon>
    </defs>
    <g id="Portfolio" stroke="none" stroke-width="1" fill="none" fill-rule="evenodd">
        <g id="Desktop-HD-Copy-3" transform="translate(-183.000000, -2858.000000)">
            <g id="Page-1" transform="translate(183.000000, 2858.000000)">
                <path d="M103.5004,314.292183 C118.229476,317.241418 107.151485,329.038706 107.151485,329.038706 C131.559688,311.764218 131.696239,310.921679 131.696239,310.921679 C144.741883,324.404045 131.696239,347.15608 131.696239,347.15608 C149.791832,339.572184 153.407824,312.353161 153.407824,312.353161 C159.639476,321.995051 155.107239,343.823842 155.107239,343.823842 C165.587603,333.606576 169.836663,313.203701 169.836663,313.203701 C173.802197,321.144511 168.1369,343.823842 168.1369,343.823842 C179.183968,335.024839 181.273925,316.798929 181.273925,316.798929 C185.29401,327.72376 177.420273,343.823842 177.420273,343.823842 C190.221654,334.623745 194.483222,314.498818 194.483222,314.498818 C194.483222,314.498818 197.354612,355.488591 197.354612,329.038706 C197.354612,302.588821 190.327281,282.322658 190.327281,282.322658 C190.327281,282.322658 181.848273,253.138869 180.125231,247.963967 C178.402188,242.789066 174.85951,229.99235 174.85951,229.99235 L32.0971627,229.99235 C32.0971627,229.99235 28.5986119,242.789066 26.8755695,247.963967 C25.1525271,253.138869 16.6735186,282.322658 16.6735186,282.322658 C16.6735186,282.322658 9.64618814,302.588821 9.64618814,329.038706 C9.64618814,355.488591 12.517578,314.498818 12.517578,314.498818 C12.517578,314.498818 16.7791458,334.623745 29.5805271,343.823842 C29.5805271,343.823842 21.7067898,327.72376 25.7268746,316.798929 C25.7268746,316.798929 27.8168322,335.024839 38.8639,343.823842 C38.8639,343.823842 33.1986034,321.144511 37.1641373,313.203701 C37.1641373,313.203701 41.4131966,333.606576 51.893561,343.823842 C51.893561,343.823842 47.3613237,321.995051 53.5929763,312.353161 C53.5929763,312.353161 57.2089678,339.572184 75.304561,347.15608 C75.304561,347.15608 62.2589169,324.404045 75.304561,310.921679 C75.304561,310.921679 75.1683576,311.764218 99.576561,329.038706 C99.576561,329.038706 88.7713237,317.241418 103.5004,314.292183" id="Fill-1" fill="#434345"></path>
                <path d="M78.4657305,270.233926 C78.4657305,270.233926 82.0278815,285.829126 66.730712,301.144414 L103.575335,301.144414 L103.681456,281.346008 L78.4657305,270.233926 Z" id="Fill-58" fill="#EBB894"></path>
                <path d="M128.535035,270.233926 C128.535035,270.233926 125.085436,285.933036 140.382606,301.248325 L103.515444,301.248325 L103.364162,281.32156 L128.535035,270.233926 Z" id="Fill-60" fill="#DDA885"></path>
                <path d="M188.594997,201.855439 L189.264895,198.95247 L194.403793,195.148869 L186.035971,190.693012 L174.423242,167.699208 L175.821412,155.10043 L171.626903,170.849163 L170.228386,167.699208 L164.635361,162.799818 L160.790047,157.367841 L161.489132,151.787324 L161.13959,148.100606 L160.090963,143.900781 L155.896107,139.351 L155.197022,136.201045 L151.701251,133.401394 L155.896107,130.951351 L147.156853,128.1517 L177.427361,129.876436 L178.547217,116.693585 L171.179031,120.487446 C178.097259,111.328747 178.547217,95.453389 178.547217,95.453389 L165.820192,105.292869 L174.078217,91.6497874 L162.02109,92.7706219 L174.078217,76.895612 L160.241412,84.9432175 L168.499437,59.6889589 L163.590556,64.6036546 L159.121556,66.8359311 L150.413573,72.8718092 L155.992353,49.8494792 L144.384836,61.7010342 L147.73398,51.4712453 L141.035692,59.6889589 L143.265327,51.4712453 L138.806056,58.5677765 C139.586098,51.9217359 135.067064,43.2232671 133.917327,41.1412701 C136.496505,46.3561769 131.65781,54.9944643 131.65781,54.9944643 C132.547649,47.8377517 128.528259,39.7897983 128.528259,39.7897983 C129.648115,53.4231392 123.839666,52.5322463 123.839666,52.5322463 C120.050293,40.4604901 112.386768,32.4128845 112.386768,32.4128845 L107.862522,44.0341501 L107.862522,37.5578697 L102.998115,43.3634584 L102.998115,37.9982721 L103.217708,38.080717 L103.367463,282.276183 C151.814522,265.944421 159.645869,238.150369 159.645869,238.150369 L162.647903,234.826827 L166.01998,230.01197 L177.00659,230.01197 L177.00659,221.454388 L182.500937,213.867013 L183.873395,207.671115 L190.138403,205.438839 L183.448107,204.317657 L188.594997,201.855439 Z" id="Fill-3" fill="#E5B796"></path>
                <polygon id="Fill-5" fill="#FFFFFF" points="47.2167814 147.56047 47.2428407 148.378658 49.2782475 146.700537"></polygon>
                <polygon id="Stroke-7" stroke="#444345" stroke-width="2.877" points="47.2167814 147.56047 47.2428407 148.378658 49.2782475 146.700537"></polygon>
                <polygon id="Fill-9" fill="#FFFFFF" points="47.1858576 146.593045 46.8311034 135.501237 40.7214085 145.41516 41.2703915 146.289356"></polygon>
                <polygon id="Stroke-11" stroke="#444345" stroke-width="2.877" points="47.1858576 146.593045 46.8311034 135.501237 40.7214085 145.41516 41.2703915 146.289356"></polygon>
                <path d="M100.344095,43.5935738 L98.1339169,39.5697711 L98.1339169,50.5203449 C92.9220525,38.8990793 86.7571119,32.4127106 86.7571119,32.4127106 C89.4363576,46.7167433 83.9781458,51.4710714 83.9781458,51.4710714 C80.6290017,43.9337899 74.4404339,39.5697711 74.4404339,39.5697711 C79.1293746,44.9349574 76.4800102,55.2148394 76.4800102,55.2148394 C71.5610525,48.5082696 62.1981119,44.2642656 62.1981119,44.2642656 C69.7865864,51.4112379 68.4645102,60.1295352 68.4645102,60.1295352 C63.5455525,55.4350406 56.4108576,51.4710714 56.4108576,51.4710714 C63.7793915,60.2596383 62.2113153,70.85956 62.2113153,70.85956 L56.1836203,62.8119544 L53.0648407,82.2606244 L47.6299085,77.7271933 L38.3284678,102.379986 L31.180222,106.854279 L33.4098576,112.219466 L26.941239,124.290874 L28.0610949,129.20557 L42.6362475,138.300957 L35.6832729,137.395454 L40.7214085,145.414882 L46.8311034,135.500958 L47.1858576,146.593115 L49.2782475,146.700607 L47.3171966,150.700058 L47.3891203,152.953207 L48.5791627,153.350126 L47.5305356,157.367667 L42.4274254,160.672424 L39.8399085,165.9496 L29.3181966,188.095995 L16.6735186,198.732443 L23.8120356,203.647139 L19.3527644,207.220451 L23.8120356,212.815927 L23.8665864,213.866839 L28.9898492,221.454214 L28.9898492,230.011796 L40.7082051,230.011796 L44.0375441,234.826653 L47.0065695,238.155065 C47.0065695,238.155065 54.7948322,265.999558 103.364197,282.325058 C103.409714,282.309752 103.453493,282.292707 103.49901,282.2774 L103.360375,38.0812389 L100.344095,43.5935738 Z" id="Fill-13" fill="#F0C8A7"></path>
                <polygon id="Fill-15" fill="#FFFFFF" points="40.7213042 145.415056 40.3186008 146.068702 41.2706347 146.289251"></polygon>
                <polygon id="Stroke-17" stroke="#444345" stroke-width="2.877" points="40.7213042 145.415056 40.3186008 146.068702 41.2706347 146.289251"></polygon>
                <polygon id="Fill-19" fill="#FFFFFF" points="41.2705653 146.289356 40.3185314 146.068459 36.6938534 151.950231 47.2169551 147.56047 47.1860314 146.593045"></polygon>
                <polygon id="Stroke-21" stroke="#444345" stroke-width="2.877" points="41.2705653 146.289356 40.3185314 146.068459 36.6938534 151.950231 47.2169551 147.56047 47.1860314 146.593045"></polygon>
                <polygon id="Fill-23" fill="#FFFFFF" points="177.737884 159.983817 176.870282 145.650563 175.821655 155.10043 175.821655 155.100082"></polygon>
                <polygon id="Stroke-25" stroke="#444345" stroke-width="2.877" points="177.737884 159.983817 176.870282 145.650563 175.821655 155.10043 175.821655 155.100082"></polygon>
                <polygon id="Fill-27" fill="#FFFFFF" points="43.3355059 151.60024 31.7999127 163.408659 33.1980822 166.649408 42.4272517 160.67232 45.4501331 154.50773"></polygon>
                <polygon id="Stroke-29" stroke="#444345" stroke-width="2.877" points="43.3355059 151.60024 31.7999127 163.408659 33.1980822 166.649408 42.4272517 160.67232 45.4501331 154.50773"></polygon>
                <polygon id="Fill-31" fill="#FFFFFF" points="45.4501678 154.507626 47.5303966 157.367806 47.3893288 152.952998 46.3778797 152.615565"></polygon>
                <polygon id="Stroke-33" stroke="#444345" stroke-width="2.877" points="45.4501678 154.507626 47.5303966 157.367806 47.3893288 152.952998 46.3778797 152.615565"></polygon>
                <polygon id="Fill-35" fill="#FFFFFF" points="179.66676 164.899556 177.738023 159.983817 178.268591 168.749425"></polygon>
                <polygon id="Stroke-37" stroke="#444345" stroke-width="2.877" points="179.66676 164.899556 177.738023 159.983817 178.268591 168.749425"></polygon>
                <polygon id="Fill-39" fill="#FFFFFF" points="45.4501678 154.507626 42.4272864 160.672563 47.5303966 157.367806"></polygon>
                <polygon id="Stroke-41" stroke="#444345" stroke-width="2.877" points="45.4501678 154.507626 42.4272864 160.672563 47.5303966 157.367806"></polygon>
                <polygon id="Fill-43" fill="#FFFFFF" points="47.3892246 152.953103 47.3173008 150.699954 46.3777754 152.61567"></polygon>
                <polygon id="Stroke-45" stroke="#444345" stroke-width="2.877" points="47.3892246 152.953103 47.3173008 150.699954 46.3777754 152.61567"></polygon>
                <polygon id="Fill-47" fill="#FFFFFF" points="47.3171619 150.699954 47.2428059 148.378623 43.3356449 151.60024 46.3779839 152.61567"></polygon>
                <polygon id="Stroke-49" stroke="#444345" stroke-width="2.877" points="47.3171619 150.699954 47.2428059 148.378623 43.3356449 151.60024 46.3779839 152.61567"></polygon>
                <g id="Group-53" transform="translate(18.415254, 0.093925)">
                    <mask id="mask-2" fill="white">
                        <use xlink:href="#path-1"></use>
                    </mask>
                    <g id="Clip-52"></g>
                    <path d="M15.362978,189.630655 C15.362978,189.630655 6.96735932,189.210429 4.8683678,177.862936 L6.54763051,165.674992 C6.54763051,165.674992 -0.168725424,146.342162 0.25100339,140.038077 C0.670732203,133.733992 7.79743559,134.99467 7.79743559,134.99467 C7.79743559,134.99467 5.32353729,125.789355 10.368622,113.56071 C10.368622,113.56071 8.51007119,102.395501 16.7409949,94.9521443 C16.7409949,94.9521443 19.1308085,75.2801423 21.7860797,72.6217261 C21.7860797,72.6217261 9.57190169,55.0765962 25.2377237,32.7465259 C25.2377237,32.7465259 34.5311729,23.442069 40.6380881,19.1886725 C40.6380881,19.1886725 47.2762661,1.11199861 65.8628169,0.845878692 C65.8628169,0.845878692 88.1664695,2.17508682 92.680639,0.845878692 C97.194461,-0.483329435 103.301376,0.845878692 103.301376,0.845878692 C103.301376,0.845878692 150.5643,19.4544446 154.015944,29.5562176 C154.015944,29.5562176 171.274859,36.4680303 161.981758,74.7485982 C161.981758,74.7485982 163.840308,81.6604109 163.043936,88.5722236 C163.043936,88.5722236 172.07158,97.0790165 162.778478,115.15569 C162.778478,115.15569 166.134224,127.118216 166.978546,139.346861 C166.978546,139.346861 174.461393,147.587882 168.619936,170.184072 C168.619936,170.184072 169.529927,184.411573 168.248503,187.29854 C168.248503,187.29854 168.248503,194.675801 160.879969,197.883503 C160.879969,197.883503 153.789749,161.083119 89.1959864,160.185268 C24.6018763,159.286722 13.3011644,171.022437 15.362978,189.630655" id="Fill-51" fill="#434345" mask="url(#mask-2)"></path>
                </g>
                <path d="M140.133692,301.049221 C140.133692,301.049221 171.029971,300.920162 197.218547,329.038775 L103.427307,329.038776 L103.427307,301.049221 L140.133692,301.049221 Z" id="Fill-54" fill="#DDA885"></path>
                <path d="M66.8670737,301.049221 C66.8670737,301.049221 35.9707941,300.920162 9.7822178,329.038775 L103.500226,329.038775 L103.500226,301.049221 L66.8670737,301.049221 Z" id="Fill-56" fill="#EBB894"></path>
                <path d="M10.4968339,328.620428 C10.4968339,328.620428 0.00013898305,338.199354 0.00013898305,350.374775 L103.453563,350.374775 L103.500469,325.66354 C56.5109949,326.614614 10.4968339,328.620428 10.4968339,328.620428" id="Fill-62" fill="#EBB894"></path>
                <g id="Group-66" transform="translate(103.194915, 325.351606)">
                    <mask id="mask-4" fill="white">
                        <use xlink:href="#path-3"></use>
                    </mask>
                    <g id="Clip-65"></g>
                    <path d="M94.1598356,3.68713499 C94.1598356,3.68713499 101.759081,13.3829447 101.759081,25.3945195 L0.258716949,24.9290706 L0.305623729,0.241490783 C47.2950983,1.19256511 94.1598356,3.68713499 94.1598356,3.68713499" id="Fill-64" fill="#DDA885" mask="url(#mask-4)"></path>
                </g>
                <path d="M12.517578,314.498887 C12.517578,314.498887 17.3131881,335.714733 29.5805271,343.823911 C29.5805271,343.823911 18.4403407,312.171295 21.0490525,309.439478 C21.0490525,309.439478 29.2101373,337.232486 38.8639,343.823911 C38.8639,343.823911 30.9338746,305.096679 34.8750864,298.010584 C34.8750864,298.010584 37.3826881,330.858479 51.893561,343.823911 C51.893561,343.823911 45.4857475,298.209217 49.7299424,291.531521 C49.7299424,291.531521 50.5537644,335.701514 75.304561,347.155802 C75.304561,347.155802 63.0695356,327.101492 70.3452983,285.6414 L27.9023068,288.574285 L11.832739,302.860228 C11.832739,302.860228 8.15455254,322.599369 10.1461797,337.873261 C10.1461797,337.873261 15.272222,312.311486 18.7280356,308.851231 C22.1841966,305.391324 12.517578,314.498887 12.517578,314.498887" id="Fill-67" fill="#434345"></path>
                <path d="M194.255846,314.498887 C194.255846,314.498887 189.460236,335.714733 177.192897,343.823911 C177.192897,343.823911 188.333083,312.171295 185.724371,309.439478 C185.724371,309.439478 177.563286,337.232486 167.909524,343.823911 C167.909524,343.823911 175.839549,305.096679 171.898337,298.010584 C171.898337,298.010584 169.390388,330.858479 154.879863,343.823911 C154.879863,343.823911 161.287676,298.209217 157.043481,291.531521 C157.043481,291.531521 156.219659,335.701514 131.468863,347.155802 C131.468863,347.155802 143.703888,327.101492 136.428125,285.6414 L178.871117,288.574285 L194.940685,302.860228 C194.940685,302.860228 198.618871,322.599369 196.627244,337.873261 C196.627244,337.873261 191.501202,312.311486 188.045388,308.851231 C184.589227,305.391324 194.255846,314.498887 194.255846,314.498887" id="Fill-69" fill="#434345"></path>
                <path d="M141.276063,338.199214 L140.351478,283.510353 C140.351478,283.510353 136.006868,281.067964 126.972969,283.658893 L126.972969,280.579903 C126.972969,280.579903 130.273122,278.082202 140.521732,278.40259 L155.811953,276.801 L155.811953,284.506303 L145.730817,283.52879 L151.372486,338.199214 L143.890681,338.199214 L141.276063,338.199214 Z" id="Fill-71" fill="#686868"></path>
                <polygon id="Fill-73" fill="#E5B796" points="150.602451 324.090615 142.937883 325.757256 133.972086 314.360714 141.492807 300.191306 150.626425 300.8453 144.35968 292.567058 155.708688 297.790313 160.212781 306.971277 159.040807 323.37957"></polygon>
            </g>
        </g>
    </g>
</svg>