<?xml version="1.0" encoding="UTF-8" standalone="no"?>
<svg width="205px" height="467px" viewBox="0 0 205 467" version="1.1" xmlns="http://www.w3.org/2000/svg" xmlns:xlink="http://www.w3.org/1999/xlink">
    <!-- Generator: Sketch 3.8.1 (29687) - http://www.bohemiancoding.com/sketch -->
    <title>Group 3</title>
    <desc>Created with Sketch.</desc>
    <defs></defs>
    <g id="Portfolio" stroke="none" stroke-width="1" fill="none" fill-rule="evenodd">
        <g id="Desktop-HD-Copy-3" transform="translate(-183.000000, -1263.000000)">
            <g id="Group-3" transform="translate(183.000000, 1263.000000)">
                <g id="Group-2">
                    <path d="M103.5235,313.642 C118.2555,316.588 107.1755,328.374 107.1755,328.374 C131.5895,311.116 131.7255,310.275 131.7255,310.275 C144.7745,323.744 131.7255,346.474 131.7255,346.474 C149.8255,338.898 153.4415,311.705 153.4415,311.705 C159.6745,321.338 155.1415,343.145 155.1415,343.145 C165.6245,332.938 169.8745,312.555 169.8745,312.555 C173.8405,320.488 168.1745,343.145 168.1745,343.145 C179.2235,334.355 181.3145,316.146 181.3145,316.146 C185.3355,327.061 177.4595,343.145 177.4595,343.145 C190.2645,333.954 194.5265,313.849 194.5265,313.849 C194.5265,313.849 197.3985,354.799 197.3985,328.374 C197.3985,301.95 190.3695,281.703 190.3695,281.703 C190.3695,281.703 181.8885,252.547 180.1655,247.377 C178.4425,242.207 174.8985,229.423 174.8985,229.423 L32.1045,229.423 C32.1045,229.423 28.6045,242.207 26.8815,247.377 C25.1585,252.547 16.6775,281.703 16.6775,281.703 C16.6775,281.703 9.6485,301.95 9.6485,328.374 C9.6485,354.799 12.5205,313.849 12.5205,313.849 C12.5205,313.849 16.7825,333.954 29.5875,343.145 C29.5875,343.145 21.7115,327.061 25.7325,316.146 C25.7325,316.146 27.8235,334.355 38.8725,343.145 C38.8725,343.145 33.2065,320.488 37.1725,312.555 C37.1725,312.555 41.4225,332.938 51.9055,343.145 C51.9055,343.145 47.3725,321.338 53.6055,311.705 C53.6055,311.705 57.2215,338.898 75.3215,346.474 C75.3215,346.474 62.2725,323.744 75.3215,310.275 C75.3215,310.275 75.1855,311.116 99.5985,328.374 C99.5985,328.374 88.7915,316.588 103.5235,313.642" id="Fill-1" fill="#434345"></path>
                    <path d="M78.4833,269.626 C78.4833,269.626 81.6908546,285.600412 66.3898546,300.901412 L103.692943,300.901412 L103.692943,277.754039 L78.4833,269.626 Z" id="Fill-57" fill="#EBB894"></path>
                    <path d="M128.5638,269.626 C128.5638,269.626 125.435371,285.708383 140.736371,301.009383 L103.3868,301.009383 L103.3868,280.703 L128.5638,269.626 Z" id="Fill-59" fill="#DDA885"></path>
                    <path d="M188.6372,201.3131 L189.3072,198.4131 L194.4472,194.6131 L186.0772,190.1611 L174.4622,167.1901 L175.8612,154.6031 L171.6652,170.3371 L170.2662,167.1901 L164.6722,162.2951 L160.8262,156.8681 L161.5252,151.2931 L161.1762,147.6101 L160.1272,143.4141 L155.9312,138.8681 L155.2322,135.7221 L151.7352,132.9251 L155.9312,130.4771 L147.1902,127.6801 L177.4672,129.4031 L178.5872,116.2331 L171.2172,120.0231 C178.1372,110.8731 178.5872,95.0131 178.5872,95.0131 L165.8572,104.8431 L174.1172,91.2131 L162.0572,92.3331 L174.1172,76.4731 L160.2772,84.5131 L168.5372,59.2831 L163.6272,64.1931 L159.1572,66.4231 L150.4472,72.4531 L156.0272,49.4531 L144.4172,61.2931 L147.7672,51.0731 L141.0672,59.2831 L143.2972,51.0731 L138.8372,58.1631 C139.6172,51.5231 135.0972,42.8331 133.9472,40.7531 C136.5272,45.9631 131.6872,54.5931 131.6872,54.5931 C132.5772,47.4431 128.5572,39.4031 128.5572,39.4031 C129.6772,53.0231 123.8672,52.1331 123.8672,52.1331 C120.0772,40.0731 112.4682,32.0331 112.4682,32.0331 L108.0002,43.6431 L108.0002,37.1731 L103.0002,42.9731 L103.0002,37.6131 L103.2302,37.6951 L103.3852,281.6571 C151.8432,265.3401 159.6792,237.5731 159.6792,237.5731 L162.6832,234.3291 L166.0572,229.5961 L177.0002,229.5961 L177.0002,220.8931 L182.5182,213.3131 L183.9032,207.1231 L190.1752,204.8931 L183.4862,203.7731 L188.6372,201.3131 Z" id="Fill-3" fill="#E5B796"></path>
                    <polygon id="Fill-5" fill="#FFFFFF" points="47.2274 147.0702 47.2534 147.8872 49.2894 146.2112"></polygon>
                    <polygon id="Stroke-7" stroke="#444345" points="47.2274 147.0702 47.2534 147.8872 49.2894 146.2112"></polygon>
                    <polygon id="Fill-9" fill="#FFFFFF" points="47.1964 146.1038 46.8414 135.0228 40.7304 144.9268 41.2794 145.8008"></polygon>
                    <polygon id="Stroke-11" stroke="#444345" points="47.1964 146.1038 46.8414 135.0228 40.7304 144.9268 41.2794 145.8008"></polygon>
                    <path d="M100.2886,43.2031 L97.9996,39.1831 L97.9996,50.1231 C92.9996,38.5131 86.6986,32.0331 86.6986,32.0331 C89.3786,46.3231 83.9576,51.0731 83.9576,51.0731 C80.6076,43.5431 74.4376,39.1831 74.4376,39.1831 C79.1276,44.5431 76.4876,54.8131 76.4876,54.8131 C71.5676,48.1131 62.2076,43.8731 62.2076,43.8731 C69.7976,51.0131 68.4776,59.7231 68.4776,59.7231 C63.5576,55.0331 56.4226,51.0731 56.4226,51.0731 C63.7926,59.8531 62.2246,70.4431 62.2246,70.4431 L56.1956,62.4031 L53.0766,81.8331 L47.6406,77.3041 L38.3366,101.9331 L31.1866,106.4031 L33.4176,111.7631 L26.9476,123.8231 L28.0676,128.7331 L42.6456,137.8201 L35.6916,136.9151 L40.7306,144.9271 L46.8416,135.0221 L47.1966,146.1041 L49.2896,146.2111 L47.3276,150.2071 L47.3996,152.4581 L48.5896,152.8541 L47.5406,156.8681 L42.4366,160.1701 L39.8486,165.4421 L29.3246,187.5671 L16.6776,198.1931 L23.8176,203.1031 L19.3576,206.6731 L23.8176,212.2631 L23.8736,213.3131 L28.9996,220.8931 L28.9996,229.5961 L40.7176,229.5961 L44.0476,234.3291 L47.0176,237.6161 C47.0176,237.6161 54.8076,265.4151 103.3876,281.7251 C103.4326,281.7091 103.4766,281.6831 103.5226,281.6671 L103.3446,37.7011 L100.2886,43.2031 Z" id="Fill-13" fill="#F0C8A7"></path>
                    <polygon id="Fill-15" fill="#FFFFFF" points="40.7304 144.9269 40.3274 145.5799 41.2794 145.7999"></polygon>
                    <polygon id="Stroke-17" stroke="#444345" points="40.7304 144.9269 40.3274 145.5799 41.2794 145.7999"></polygon>
                    <polygon id="Fill-19" fill="#FFFFFF" points="41.2798 145.8003 40.3278 145.5793 36.7018 151.4553 47.2278 147.0703 47.1968 146.1033"></polygon>
                    <polygon id="Stroke-21" stroke="#444345" points="41.2798 145.8003 40.3278 145.5793 36.7018 151.4553 47.2278 147.0703 47.1968 146.1033"></polygon>
                    <polygon id="Fill-23" fill="#FFFFFF" points="177.7776 159.4817 176.9096 145.1617 175.8606 154.6027 175.8606 154.6027"></polygon>
                    <polygon id="Stroke-25" stroke="#444345" points="177.7776 159.4817 176.9096 145.1617 175.8606 154.6027 175.8606 154.6027"></polygon>
                    <polygon id="Fill-27" fill="#FFFFFF" points="43.3452 151.1061 31.8072 162.9031 33.2052 166.1411 42.4372 160.1701 45.4602 154.0111"></polygon>
                    <polygon id="Stroke-29" stroke="#444345" points="43.3452 151.1061 31.8072 162.9031 33.2052 166.1411 42.4372 160.1701 45.4602 154.0111"></polygon>
                    <polygon id="Fill-31" fill="#FFFFFF" points="45.4603 154.0107 47.5413 156.8677 47.4003 152.4577 46.3883 152.1207"></polygon>
                    <polygon id="Stroke-33" stroke="#444345" points="45.4603 154.0107 47.5413 156.8677 47.4003 152.4577 46.3883 152.1207"></polygon>
                    <polygon id="Fill-35" fill="#FFFFFF" points="179.707 164.3927 177.778 159.4817 178.308 168.2387"></polygon>
                    <polygon id="Stroke-37" stroke="#444345" points="179.707 164.3927 177.778 159.4817 178.308 168.2387"></polygon>
                    <polygon id="Fill-39" fill="#FFFFFF" points="45.4603 154.0107 42.4373 160.1697 47.5413 156.8677"></polygon>
                    <polygon id="Stroke-41" stroke="#444345" points="45.4603 154.0107 42.4373 160.1697 47.5413 156.8677"></polygon>
                    <polygon id="Fill-43" fill="#FFFFFF" points="47.3998 152.4577 47.3278 150.2067 46.3878 152.1207"></polygon>
                    <polygon id="Stroke-45" stroke="#444345" points="47.3998 152.4577 47.3278 150.2067 46.3878 152.1207"></polygon>
                    <polygon id="Fill-47" fill="#FFFFFF" points="47.3278 150.2067 47.2538 147.8877 43.3448 151.1057 46.3888 152.1207"></polygon>
                    <polygon id="Stroke-49" stroke="#444345" points="47.3278 150.2067 47.2538 147.8877 43.3448 151.1057 46.3888 152.1207"></polygon>
                    <path d="M33.7858,189.1939 C33.7858,189.1939 25.3888,188.7739 23.2888,177.4379 L24.9688,165.2609 C24.9688,165.2609 18.2508,145.9469 18.6708,139.6489 C19.0898,133.3509 26.2188,134.6109 26.2188,134.6109 C26.2188,134.6109 23.7438,125.4139 28.7908,113.1969 C28.7908,113.1969 26.9308,102.0429 35.1638,94.6059 C35.1638,94.6059 37.5548,74.9529 40.2108,72.2979 C40.2108,72.2979 27.9938,54.7689 43.6628,32.4599 C43.6628,32.4599 52.9578,23.1649 59.0668,18.9159 C59.0668,18.9159 65.7058,0.8559 84.2968,0.5899 C84.2968,0.5899 106.6058,1.9179 111.1208,0.5899 C115.6358,-0.7371 121.7438,0.5899 121.7438,0.5899 C121.7438,0.5899 169.0178,19.1809 172.4698,29.2729 C172.4698,29.2729 189.7328,36.1779 180.4378,74.4219 C180.4378,74.4219 182.2968,81.3269 181.4998,88.2319 C181.4998,88.2319 190.5298,96.7309 181.2338,114.7909 C181.2338,114.7909 184.5908,126.7419 185.4358,138.9579 C185.4358,138.9579 192.9198,147.1909 187.0768,169.7659 C187.0768,169.7659 187.9878,183.9799 186.7058,186.8639 C186.7058,186.8639 186.7058,194.2339 179.3348,197.4389 C179.3348,197.4389 172.2438,160.6739 107.6348,159.7769 C43.0268,158.8789 31.7238,170.6039 33.7858,189.1939" id="Fill-51" fill="#434345"></path>
                    <path d="M140.165,300.4117 C140.165,300.4117 171.068,300.2827 197.263,328.3747 L102.485537,328.3747 L102.485537,300.4117 L140.165,300.4117 Z" id="Fill-53" fill="#DDA885"></path>
                    <path d="M66.882,300.4117 C66.882,300.4117 35.979,300.2827 9.784,328.3747 L103.523,328.3747 L103.523,300.4117 L66.882,300.4117 Z" id="Fill-55" fill="#EBB894"></path>
                    <path d="M0.0002,349.5955 L103.85515,349.595499 L103.85515,324.982291 C56.85515,325.932291 10.4992,327.9095 10.4992,327.9095 C10.4992,327.9095 0.0002,337.5955 0.0002,349.5955 Z" id="Fill-61" fill="#EBB894"></path>
                    <path d="M197.3989,328.3744 C197.3989,328.3744 204.9999,338.0604 204.9999,350.0604 L103.4769,349.5964 L103.5239,324.9324 C150.5239,325.8824 197.3989,328.3744 197.3989,328.3744" id="Fill-63" fill="#DDA885"></path>
                    <path d="M12.5204,313.8485 C12.5204,313.8485 17.3174,335.0445 29.5874,343.1455 C29.5874,343.1455 18.4444,311.5235 21.0534,308.7935 C21.0534,308.7935 29.2164,336.5605 38.8724,343.1455 C38.8724,343.1455 30.9404,304.4555 34.8824,297.3765 C34.8824,297.3765 37.3914,330.1925 51.9054,343.1455 C51.9054,343.1455 45.4964,297.5745 49.7414,290.9035 C49.7414,290.9035 50.5654,335.0305 75.3214,346.4745 C75.3214,346.4745 63.0834,326.4385 70.3614,285.0185 L27.9084,287.9485 L11.8354,302.2205 C11.8354,302.2205 8.1564,321.9415 10.1484,337.2005 C10.1484,337.2005 15.2754,311.6635 18.7324,308.2065 C22.1894,304.7495 12.5204,313.8485 12.5204,313.8485" id="Fill-65" fill="#434345"></path>
                    <path d="M194.2993,313.8485 C194.2993,313.8485 189.5023,335.0445 177.2323,343.1455 C177.2323,343.1455 188.3753,311.5235 185.7663,308.7935 C185.7663,308.7935 177.6033,336.5605 167.9473,343.1455 C167.9473,343.1455 175.8793,304.4555 171.9373,297.3765 C171.9373,297.3765 169.4283,330.1925 154.9143,343.1455 C154.9143,343.1455 161.3233,297.5745 157.0783,290.9035 C157.0783,290.9035 156.2543,335.0305 131.4983,346.4745 C131.4983,346.4745 143.7363,326.4385 136.4583,285.0185 L178.9113,287.9485 L194.9843,302.2205 C194.9843,302.2205 198.6633,321.9415 196.6713,337.2005 C196.6713,337.2005 191.5443,311.6635 188.0873,308.2065 C184.6303,304.7495 194.2993,313.8485 194.2993,313.8485" id="Fill-67" fill="#434345"></path>
                </g>
                <g id="Group-71" transform="translate(0.000000, 346.596000)" fill="#545454">
                    <path d="M3.4649,0 L201.5349,0 C203.4489,0 204.9999,1.551 204.9999,3.465 L204.9999,94.535 C204.9999,96.449 203.4489,98 201.5349,98 L3.4649,98 C1.5509,98 -0.0001,96.449 -0.0001,94.535 L-0.0001,3.465 C-0.0001,1.551 1.5509,0 3.4649,0" id="Fill-69"></path>
                </g>
                <path d="M1.6857,444.0927 L24.4087,459.4997 C24.5097,459.5627 24.6267,459.5957 24.7457,459.5957 L180.7237,459.5957 C180.8447,459.5957 180.9627,459.5617 181.0657,459.4967 L203.1537,444.2247 C203.6957,443.8817 203.4527,443.0437 202.8117,443.0437 L2.0227,442.9087 C1.3787,442.9087 1.1377,443.7537 1.6857,444.0927" id="Fill-72" fill="#434345"></path>
                <polygon id="Fill-74" fill="#E5B796" points="107.8344 458.2278 105.6274 450.6998 116.3434 440.9428 131.0004 447.4368 131.0004 456.5958 138.8024 449.7538 134.4064 461.4478 125.5794 466.5958 109.1444 466.5958"></polygon>
                <path d="M90.7512,401.6866 C90.7512,401.6866 110.0742,391.1786 116.7142,382.6416 L121.1362,384.8966 C121.1362,384.8966 104.2682,397.6556 92.4112,403.8206 L90.7512,401.6866 Z" id="Fill-76" fill="#FFFFFF"></path>
                <g id="Group" transform="translate(84.000000, 385.000000)" fill="#FFFFFF">
                    <path d="M11.2883,18.969 C11.2883,18.027 10.5243,17.264 9.5833,17.264 C8.6413,17.264 7.8773,18.027 7.8773,18.969 C7.8773,19.911 8.6413,20.674 9.5833,20.674 C10.5243,20.674 11.2883,19.911 11.2883,18.969" id="Fill-78"></path>
                    <path d="M8.4566,18.706 C8.4566,17.764 7.6926,17.001 6.7516,17.001 C5.8096,17.001 5.0456,17.764 5.0456,18.706 C5.0456,19.648 5.8096,20.411 6.7516,20.411 C7.6926,20.411 8.4566,19.648 8.4566,18.706" id="Fill-80"></path>
                    <path d="M7.8773,15.9803 C7.8773,15.0383 7.1133,14.2753 6.1723,14.2753 C5.2303,14.2753 4.4663,15.0383 4.4663,15.9803 C4.4663,16.9223 5.2303,17.6853 6.1723,17.6853 C7.1133,17.6853 7.8773,16.9223 7.8773,15.9803" id="Fill-82"></path>
                    <path d="M10.6911,15.2951 C10.6911,14.3531 9.9271,13.5901 8.9861,13.5901 C8.0441,13.5901 7.2801,14.3531 7.2801,15.2951 C7.2801,16.2371 8.0441,17.0001 8.9861,17.0001 C9.9271,17.0001 10.6911,16.2371 10.6911,15.2951" id="Fill-84"></path>
                    <path d="M13.3214,17.0005 C13.3214,16.0585 12.5574,15.2955 11.6164,15.2955 C10.6744,15.2955 9.9104,16.0585 9.9104,17.0005 C9.9104,17.9425 10.6744,18.7055 11.6164,18.7055 C12.5574,18.7055 13.3214,17.9425 13.3214,17.0005" id="Fill-86"></path>
                    <path d="M14.102,19.3912 C14.102,18.4492 13.338,17.6862 12.397,17.6862 C11.455,17.6862 10.691,18.4492 10.691,19.3912 C10.691,20.3332 11.455,21.0962 12.397,21.0962 C13.338,21.0962 14.102,20.3332 14.102,19.3912" id="Fill-88"></path>
                    <path d="M12.5614,13.5896 C12.5614,12.6476 11.7974,11.8846 10.8564,11.8846 C9.9144,11.8846 9.1504,12.6476 9.1504,13.5896 C9.1504,14.5316 9.9144,15.2946 10.8564,15.2946 C11.7974,15.2946 12.5614,14.5316 12.5614,13.5896" id="Fill-90"></path>
                    <path d="M9.5828,13.0636 C9.5828,12.1216 8.8188,11.3586 7.8778,11.3586 C6.9358,11.3586 6.1718,12.1216 6.1718,13.0636 C6.1718,14.0056 6.9358,14.7686 7.8778,14.7686 C8.8188,14.7686 9.5828,14.0056 9.5828,13.0636" id="Fill-92"></path>
                    <path d="M7.5161,13.5896 C7.5161,12.6476 6.7521,11.8846 5.8111,11.8846 C4.8691,11.8846 4.1051,12.6476 4.1051,13.5896 C4.1051,14.5316 4.8691,15.2946 5.8111,15.2946 C6.7521,15.2946 7.5161,14.5316 7.5161,13.5896" id="Fill-94"></path>
                    <path d="M11.2883,11.1586 C11.2883,10.2166 10.5243,9.4536 9.5833,9.4536 C8.6413,9.4536 7.8773,10.2166 7.8773,11.1586 C7.8773,12.1006 8.6413,12.8636 9.5833,12.8636 C10.5243,12.8636 11.2883,12.1006 11.2883,11.1586" id="Fill-96"></path>
                    <path d="M13.3214,10.596 C13.3214,9.654 12.5574,8.891 11.6164,8.891 C10.6744,8.891 9.9104,9.654 9.9104,10.596 C9.9104,11.538 10.6744,12.301 11.6164,12.301 C12.5574,12.301 13.3214,11.538 13.3214,10.596" id="Fill-98"></path>
                    <path d="M15.0269,12.8641 C15.0269,11.9221 14.2629,11.1591 13.3219,11.1591 C12.3799,11.1591 11.6159,11.9221 11.6159,12.8641 C11.6159,13.8061 12.3799,14.5691 13.3219,14.5691 C14.2629,14.5691 15.0269,13.8061 15.0269,12.8641" id="Fill-100"></path>
                    <path d="M15.5905,16.275 C15.5905,15.333 14.8265,14.57 13.8855,14.57 C12.9435,14.57 12.1795,15.333 12.1795,16.275 C12.1795,17.217 12.9435,17.98 13.8855,17.98 C14.8265,17.98 15.5905,17.217 15.5905,16.275" id="Fill-102"></path>
                    <path d="M15.9724,17.9805 C15.9724,17.0385 15.2084,16.2755 14.2674,16.2755 C13.3254,16.2755 12.5614,17.0385 12.5614,17.9805 C12.5614,18.9225 13.3254,19.6855 14.2674,19.6855 C15.2084,19.6855 15.9724,18.9225 15.9724,17.9805" id="Fill-104"></path>
                    <path d="M18.302,18.706 C18.302,17.764 17.538,17.001 16.597,17.001 C15.655,17.001 14.891,17.764 14.891,18.706 C14.891,19.648 15.655,20.411 16.597,20.411 C17.538,20.411 18.302,19.648 18.302,18.706" id="Fill-106"></path>
                    <path d="M18.0766,15.9803 C18.0766,15.0383 17.3126,14.2753 16.3716,14.2753 C15.4296,14.2753 14.6656,15.0383 14.6656,15.9803 C14.6656,16.9223 15.4296,17.6853 16.3716,17.6853 C17.3126,17.6853 18.0766,16.9223 18.0766,15.9803" id="Fill-108"></path>
                    <path d="M17.6778,13.5896 C17.6778,12.6476 16.9138,11.8846 15.9728,11.8846 C15.0308,11.8846 14.2668,12.6476 14.2668,13.5896 C14.2668,14.5316 15.0308,15.2946 15.9728,15.2946 C16.9138,15.2946 17.6778,14.5316 17.6778,13.5896" id="Fill-110"></path>
                    <path d="M15.9724,11.3581 C15.9724,10.4161 15.2084,9.6531 14.2674,9.6531 C13.3254,9.6531 12.5614,10.4161 12.5614,11.3581 C12.5614,12.3001 13.3254,13.0631 14.2674,13.0631 C15.2084,13.0631 15.9724,12.3001 15.9724,11.3581" id="Fill-112"></path>
                    <path d="M15.5905,9.2163 C15.5905,8.2743 14.8265,7.5113 13.8855,7.5113 C12.9435,7.5113 12.1795,8.2743 12.1795,9.2163 C12.1795,10.1583 12.9435,10.9213 13.8855,10.9213 C14.8265,10.9213 15.5905,10.1583 15.5905,9.2163" id="Fill-114"></path>
                    <path d="M14.5008,9.8093 C14.5008,8.8673 13.7368,8.1043 12.7958,8.1043 C11.8538,8.1043 11.0898,8.8673 11.0898,9.8093 C11.0898,10.7513 11.8538,11.5143 12.7958,11.5143 C13.7368,11.5143 14.5008,10.7513 14.5008,9.8093" id="Fill-116"></path>
                    <path d="M18.302,8.8905 C18.302,7.9485 17.538,7.1855 16.597,7.1855 C15.655,7.1855 14.891,7.9485 14.891,8.8905 C14.891,9.8325 15.655,10.5955 16.597,10.5955 C17.538,10.5955 18.302,9.8325 18.302,8.8905" id="Fill-118"></path>
                    <path d="M16.9753,8.5115 C16.9753,7.5695 16.2113,6.8065 15.2703,6.8065 C14.3283,6.8065 13.5643,7.5695 13.5643,8.5115 C13.5643,9.4535 14.3283,10.2165 15.2703,10.2165 C16.2113,10.2165 16.9753,9.4535 16.9753,8.5115" id="Fill-120"></path>
                    <path d="M18.0766,10.9217 C18.0766,9.9797 17.3126,9.2167 16.3716,9.2167 C15.4296,9.2167 14.6656,9.9797 14.6656,10.9217 C14.6656,11.8637 15.4296,12.6267 16.3716,12.6267 C17.3126,12.6267 18.0766,11.8637 18.0766,10.9217" id="Fill-122"></path>
                    <path d="M20.0075,13.2203 C20.0075,12.2783 19.2435,11.5153 18.3025,11.5153 C17.3605,11.5153 16.5965,12.2783 16.5965,13.2203 C16.5965,14.1623 17.3605,14.9253 18.3025,14.9253 C19.2435,14.9253 20.0075,14.1623 20.0075,13.2203" id="Fill-124"></path>
                    <path d="M20.1499,15.7791 C20.1499,14.8371 19.3859,14.0741 18.4449,14.0741 C17.5029,14.0741 16.7389,14.8371 16.7389,15.7791 C16.7389,16.7211 17.5029,17.4841 18.4449,17.4841 C19.3859,17.4841 20.1499,16.7211 20.1499,15.7791" id="Fill-126"></path>
                    <path d="M20.5606,17.6858 C20.5606,16.7438 19.7966,15.9808 18.8556,15.9808 C17.9136,15.9808 17.1496,16.7438 17.1496,17.6858 C17.1496,18.6278 17.9136,19.3908 18.8556,19.3908 C19.7966,19.3908 20.5606,18.6278 20.5606,17.6858" id="Fill-128"></path>
                    <path d="M22.993,17.0005 C22.993,16.0585 22.229,15.2955 21.288,15.2955 C20.346,15.2955 19.582,16.0585 19.582,17.0005 C19.582,17.9425 20.346,18.7055 21.288,18.7055 C22.229,18.7055 22.993,17.9425 22.993,17.0005" id="Fill-130"></path>
                    <path d="M21.8554,14.2748 C21.8554,13.3328 21.0914,12.5698 20.1504,12.5698 C19.2084,12.5698 18.4444,13.3328 18.4444,14.2748 C18.4444,15.2168 19.2084,15.9798 20.1504,15.9798 C21.0914,15.9798 21.8554,15.2168 21.8554,14.2748" id="Fill-132"></path>
                    <path d="M22.2661,11.3581 C22.2661,10.4161 21.5021,9.6531 20.5611,9.6531 C19.6191,9.6531 18.8551,10.4161 18.8551,11.3581 C18.8551,12.3001 19.6191,13.0631 20.5611,13.0631 C21.5021,13.0631 22.2661,12.3001 22.2661,11.3581" id="Fill-134"></path>
                    <path d="M20.1499,9.4531 C20.1499,8.5111 19.3859,7.7481 18.4449,7.7481 C17.5029,7.7481 16.7389,8.5111 16.7389,9.4531 C16.7389,10.3951 17.5029,11.1581 18.4449,11.1581 C19.3859,11.1581 20.1499,10.3951 20.1499,9.4531" id="Fill-136"></path>
                    <path d="M17.9117,6.1994 C17.9117,5.2574 17.1477,4.4944 16.2067,4.4944 C15.2647,4.4944 14.5007,5.2574 14.5007,6.1994 C14.5007,7.1414 15.2647,7.9044 16.2067,7.9044 C17.1477,7.9044 17.9117,7.1414 17.9117,6.1994" id="Fill-138"></path>
                    <path d="M16.5966,7.305 C16.5966,6.363 15.8326,5.6 14.8916,5.6 C13.9496,5.6 13.1856,6.363 13.1856,7.305 C13.1856,8.247 13.9496,9.01 14.8916,9.01 C15.8326,9.01 16.5966,8.247 16.5966,7.305" id="Fill-140"></path>
                    <path d="M15.0269,8.7582 C15.0269,7.8162 14.2629,7.0532 13.3219,7.0532 C12.3799,7.0532 11.6159,7.8162 11.6159,8.7582 C11.6159,9.7002 12.3799,10.4632 13.3219,10.4632 C14.2629,10.4632 15.0269,9.7002 15.0269,8.7582" id="Fill-142"></path>
                    <path d="M13.3214,10.0233 C13.3214,9.0813 12.5574,8.3183 11.6164,8.3183 C10.6744,8.3183 9.9104,9.0813 9.9104,10.0233 C9.9104,10.9653 10.6744,11.7283 11.6164,11.7283 C12.5574,11.7283 13.3214,10.9653 13.3214,10.0233" id="Fill-144"></path>
                    <path d="M20.1499,6.806 C20.1499,5.864 19.3859,5.101 18.4449,5.101 C17.5029,5.101 16.7389,5.864 16.7389,6.806 C16.7389,7.748 17.5029,8.511 18.4449,8.511 C19.3859,8.511 20.1499,7.748 20.1499,6.806" id="Fill-146"></path>
                    <path d="M19.6172,5.1005 C19.6172,4.1585 18.8532,3.3955 17.9122,3.3955 C16.9702,3.3955 16.2062,4.1585 16.2062,5.1005 C16.2062,6.0425 16.9702,6.8055 17.9122,6.8055 C18.8532,6.8055 19.6172,6.0425 19.6172,5.1005" id="Fill-148"></path>
                    <path d="M21.713,3.8941 C21.713,2.9521 20.949,2.1891 20.008,2.1891 C19.066,2.1891 18.302,2.9521 18.302,3.8941 C18.302,4.8361 19.066,5.5991 20.008,5.5991 C20.949,5.5991 21.713,4.8361 21.713,3.8941" id="Fill-150"></path>
                    <path d="M22.5907,6.1994 C22.5907,5.2574 21.8267,4.4944 20.8857,4.4944 C19.9437,4.4944 19.1797,5.2574 19.1797,6.1994 C19.1797,7.1414 19.9437,7.9044 20.8857,7.9044 C21.8267,7.9044 22.5907,7.1414 22.5907,6.1994" id="Fill-152"></path>
                    <path d="M22.993,2.5033 C22.993,1.5613 22.229,0.7983 21.288,0.7983 C20.346,0.7983 19.582,1.5613 19.582,2.5033 C19.582,3.4453 20.346,4.2083 21.288,4.2083 C22.229,4.2083 22.993,3.4453 22.993,2.5033" id="Fill-154"></path>
                    <path d="M25.2283,2.8947 C25.2283,1.9527 24.4643,1.1897 23.5233,1.1897 C22.5813,1.1897 21.8173,1.9527 21.8173,2.8947 C21.8173,3.8367 22.5813,4.5997 23.5233,4.5997 C24.4643,4.5997 25.2283,3.8367 25.2283,2.8947" id="Fill-156"></path>
                    <path d="M27.7883,4.4939 C27.7883,3.5519 27.0243,2.7889 26.0833,2.7889 C25.1413,2.7889 24.3773,3.5519 24.3773,4.4939 C24.3773,5.4359 25.1413,6.1989 26.0833,6.1989 C27.0243,6.1989 27.7883,5.4359 27.7883,4.4939" id="Fill-158"></path>
                    <path d="M30.1545,5.5996 C30.1545,4.6576 29.3905,3.8946 28.4495,3.8946 C27.5075,3.8946 26.7435,4.6576 26.7435,5.5996 C26.7435,6.5416 27.5075,7.3046 28.4495,7.3046 C29.3905,7.3046 30.1545,6.5416 30.1545,5.5996" id="Fill-160"></path>
                    <path d="M32.7144,7.1851 C32.7144,6.2431 31.9504,5.4801 31.0094,5.4801 C30.0674,5.4801 29.3034,6.2431 29.3034,7.1851 C29.3034,8.1271 30.0674,8.8901 31.0094,8.8901 C31.9504,8.8901 32.7144,8.1271 32.7144,7.1851" id="Fill-162"></path>
                    <path d="M33.5487,9.6526 C33.5487,8.7106 32.7847,7.9476 31.8437,7.9476 C30.9017,7.9476 30.1377,8.7106 30.1377,9.6526 C30.1377,10.5946 30.9017,11.3576 31.8437,11.3576 C32.7847,11.3576 33.5487,10.5946 33.5487,9.6526" id="Fill-164"></path>
                    <path d="M34.4199,12.3015 C34.4199,11.3595 33.6559,10.5965 32.7149,10.5965 C31.7729,10.5965 31.0089,11.3595 31.0089,12.3015 C31.0089,13.2435 31.7729,14.0065 32.7149,14.0065 C33.6559,14.0065 34.4199,13.2435 34.4199,12.3015" id="Fill-166"></path>
                    <path d="M34.128,14.5695 C34.128,13.6275 33.364,12.8645 32.423,12.8645 C31.481,12.8645 30.717,13.6275 30.717,14.5695 C30.717,15.5115 31.481,16.2745 32.423,16.2745 C33.364,16.2745 34.128,15.5115 34.128,14.5695" id="Fill-168"></path>
                    <path d="M31.3386,15.9803 C31.3386,15.0383 30.5746,14.2753 29.6336,14.2753 C28.6916,14.2753 27.9276,15.0383 27.9276,15.9803 C27.9276,16.9223 28.6916,17.6853 29.6336,17.6853 C30.5746,17.6853 31.3386,16.9223 31.3386,15.9803" id="Fill-170"></path>
                    <path d="M28.5605,17.2636 C28.5605,16.3216 27.7965,15.5586 26.8555,15.5586 C25.9135,15.5586 25.1495,16.3216 25.1495,17.2636 C25.1495,18.2056 25.9135,18.9686 26.8555,18.9686 C27.7965,18.9686 28.5605,18.2056 28.5605,17.2636" id="Fill-172"></path>
                    <path d="M25.7283,17.6157 C25.7283,16.6737 24.9643,15.9107 24.0233,15.9107 C23.0813,15.9107 22.3173,16.6737 22.3173,17.6157 C22.3173,18.5577 23.0813,19.3207 24.0233,19.3207 C24.9643,19.3207 25.7283,18.5577 25.7283,17.6157" id="Fill-174"></path>
                    <path d="M24.5156,15.5581 C24.5156,14.6161 23.7516,13.8531 22.8106,13.8531 C21.8686,13.8531 21.1046,14.6161 21.1046,15.5581 C21.1046,16.5001 21.8686,17.2631 22.8106,17.2631 C23.7516,17.2631 24.5156,16.5001 24.5156,15.5581" id="Fill-176"></path>
                    <path d="M27.4338,15.5581 C27.4338,14.6161 26.6698,13.8531 25.7288,13.8531 C24.7868,13.8531 24.0228,14.6161 24.0228,15.5581 C24.0228,16.5001 24.7868,17.2631 25.7288,17.2631 C26.6698,17.2631 27.4338,16.5001 27.4338,15.5581" id="Fill-178"></path>
                    <path d="M29.6087,14.769 C29.6087,13.827 28.8447,13.064 27.9037,13.064 C26.9617,13.064 26.1977,13.827 26.1977,14.769 C26.1977,15.711 26.9617,16.474 27.9037,16.474 C28.8447,16.474 29.6087,15.711 29.6087,14.769" id="Fill-180"></path>
                    <path d="M32.1377,13.5896 C32.1377,12.6476 31.3737,11.8846 30.4327,11.8846 C29.4907,11.8846 28.7267,12.6476 28.7267,13.5896 C28.7267,14.5316 29.4907,15.2946 30.4327,15.2946 C31.3737,15.2946 32.1377,14.5316 32.1377,13.5896" id="Fill-182"></path>
                    <path d="M32.7144,11.1586 C32.7144,10.2166 31.9504,9.4536 31.0094,9.4536 C30.0674,9.4536 29.3034,10.2166 29.3034,11.1586 C29.3034,12.1006 30.0674,12.8636 31.0094,12.8636 C31.9504,12.8636 32.7144,12.1006 32.7144,11.1586" id="Fill-184"></path>
                    <path d="M29.6331,12.6272 C29.6331,11.6852 28.8691,10.9222 27.9281,10.9222 C26.9861,10.9222 26.2221,11.6852 26.2221,12.6272 C26.2221,13.5692 26.9861,14.3322 27.9281,14.3322 C28.8691,14.3322 29.6331,13.5692 29.6331,12.6272" id="Fill-186"></path>
                    <path d="M30.266,10.4636 C30.266,9.5216 29.502,8.7586 28.561,8.7586 C27.619,8.7586 26.855,9.5216 26.855,10.4636 C26.855,11.4056 27.619,12.1686 28.561,12.1686 C29.502,12.1686 30.266,11.4056 30.266,10.4636" id="Fill-188"></path>
                    <path d="M27.2019,13.2203 C27.2019,12.2783 26.4379,11.5153 25.4969,11.5153 C24.5549,11.5153 23.7909,12.2783 23.7909,13.2203 C23.7909,14.1623 24.5549,14.9253 25.4969,14.9253 C26.4379,14.9253 27.2019,14.1623 27.2019,13.2203" id="Fill-190"></path>
                    <path d="M24.7976,13.8527 C24.7976,12.9107 24.0336,12.1477 23.0926,12.1477 C22.1506,12.1477 21.3866,12.9107 21.3866,13.8527 C21.3866,14.7947 22.1506,15.5577 23.0926,15.5577 C24.0336,15.5577 24.7976,14.7947 24.7976,13.8527" id="Fill-192"></path>
                    <path d="M22.7299,12.8641 C22.7299,11.9221 21.9659,11.1591 21.0249,11.1591 C20.0829,11.1591 19.3189,11.9221 19.3189,12.8641 C19.3189,13.8061 20.0829,14.5691 21.0249,14.5691 C21.9659,14.5691 22.7299,13.8061 22.7299,12.8641" id="Fill-194"></path>
                    <path d="M24.5156,11.1586 C24.5156,10.2166 23.7516,9.4536 22.8106,9.4536 C21.8686,9.4536 21.1046,10.2166 21.1046,11.1586 C21.1046,12.1006 21.8686,12.8636 22.8106,12.8636 C23.7516,12.8636 24.5156,12.1006 24.5156,11.1586" id="Fill-196"></path>
                    <path d="M27.2019,10.9217 C27.2019,9.9797 26.4379,9.2167 25.4969,9.2167 C24.5549,9.2167 23.7909,9.9797 23.7909,10.9217 C23.7909,11.8637 24.5549,12.6267 25.4969,12.6267 C26.4379,12.6267 27.2019,11.8637 27.2019,10.9217" id="Fill-198"></path>
                    <path d="M29.4677,9.0105 C29.4677,8.0685 28.7037,7.3055 27.7627,7.3055 C26.8207,7.3055 26.0567,8.0685 26.0567,9.0105 C26.0567,9.9525 26.8207,10.7155 27.7627,10.7155 C28.7037,10.7155 29.4677,9.9525 29.4677,9.0105" id="Fill-200"></path>
                    <path d="M30.8109,9.0105 C30.8109,8.0685 30.0469,7.3055 29.1059,7.3055 C28.1639,7.3055 27.3999,8.0685 27.3999,9.0105 C27.3999,9.9525 28.1639,10.7155 29.1059,10.7155 C30.0469,10.7155 30.8109,9.9525 30.8109,9.0105" id="Fill-202"></path>
                    <path d="M29.0116,7.5108 C29.0116,6.5688 28.2476,5.8058 27.3066,5.8058 C26.3646,5.8058 25.6006,6.5688 25.6006,7.5108 C25.6006,8.4528 26.3646,9.2158 27.3066,9.2158 C28.2476,9.2158 29.0116,8.4528 29.0116,7.5108" id="Fill-204"></path>
                    <path d="M26.221,9.0105 C26.221,8.0685 25.457,7.3055 24.516,7.3055 C23.574,7.3055 22.81,8.0685 22.81,9.0105 C22.81,9.9525 23.574,10.7155 24.516,10.7155 C25.457,10.7155 26.221,9.9525 26.221,9.0105" id="Fill-206"></path>
                    <path d="M22.3619,8.3791 C22.3619,7.4371 21.5979,6.6741 20.6569,6.6741 C19.7149,6.6741 18.9509,7.4371 18.9509,8.3791 C18.9509,9.3211 19.7149,10.0841 20.6569,10.0841 C21.5979,10.0841 22.3619,9.3211 22.3619,8.3791" id="Fill-208"></path>
                    <path d="M24.0674,7.1851 C24.0674,6.2431 23.3034,5.4801 22.3624,5.4801 C21.4204,5.4801 20.6564,6.2431 20.6564,7.1851 C20.6564,8.1271 21.4204,8.8901 22.3624,8.8901 C23.3034,8.8901 24.0674,8.1271 24.0674,7.1851" id="Fill-210"></path>
                    <path d="M24.8649,8.5115 C24.8649,7.5695 24.1009,6.8065 23.1599,6.8065 C22.2179,6.8065 21.4539,7.5695 21.4539,8.5115 C21.4539,9.4535 22.2179,10.2165 23.1599,10.2165 C24.1009,10.2165 24.8649,9.4535 24.8649,8.5115" id="Fill-212"></path>
                    <path d="M27.3061,7.1851 C27.3061,6.2431 26.5421,5.4801 25.6011,5.4801 C24.6591,5.4801 23.8951,6.2431 23.8951,7.1851 C23.8951,8.1271 24.6591,8.8901 25.6011,8.8901 C26.5421,8.8901 27.3061,8.1271 27.3061,7.1851" id="Fill-214"></path>
                    <path d="M23.4184,3.8941 C23.4184,2.9521 22.6544,2.1891 21.7134,2.1891 C20.7714,2.1891 20.0074,2.9521 20.0074,3.8941 C20.0074,4.8361 20.7714,5.5991 21.7134,5.5991 C22.6544,5.5991 23.4184,4.8361 23.4184,3.8941" id="Fill-216"></path>
                    <path d="M25.4964,5.3473 C25.4964,4.4053 24.7324,3.6423 23.7914,3.6423 C22.8494,3.6423 22.0854,4.4053 22.0854,5.3473 C22.0854,6.2893 22.8494,7.0523 23.7914,7.0523 C24.7324,7.0523 25.4964,6.2893 25.4964,5.3473" id="Fill-218"></path>
                    <path d="M6.986,18.1839 C6.986,17.2419 6.222,16.4789 5.281,16.4789 C4.339,16.4789 3.575,17.2419 3.575,18.1839 C3.575,19.1259 4.339,19.8889 5.281,19.8889 C6.222,19.8889 6.986,19.1259 6.986,18.1839" id="Fill-220"></path>
                    <path d="M4.2745,19.3912 C4.2745,18.4492 3.5105,17.6862 2.5695,17.6862 C1.6275,17.6862 0.8635,18.4492 0.8635,19.3912 C0.8635,20.3332 1.6275,21.0962 2.5695,21.0962 C3.5105,21.0962 4.2745,20.3332 4.2745,19.3912" id="Fill-222"></path>
                    <path d="M5.7225,16.275 C5.7225,15.333 4.9585,14.57 4.0175,14.57 C3.0755,14.57 2.3115,15.333 2.3115,16.275 C2.3115,17.217 3.0755,17.98 4.0175,17.98 C4.9585,17.98 5.7225,17.217 5.7225,16.275" id="Fill-224"></path>
                    <path d="M6.7512,19.8893 C6.7512,18.9473 5.9872,18.1843 5.0462,18.1843 C4.1042,18.1843 3.3402,18.9473 3.3402,19.8893 C3.3402,20.8313 4.1042,21.5943 5.0462,21.5943 C5.9872,21.5943 6.7512,20.8313 6.7512,19.8893" id="Fill-226"></path>
                </g>
            </g>
        </g>
    </g>
</svg>